<?xml version="1.0" standalone="no"?>
<!DOCTYPE svg PUBLIC "-//W3C//DTD SVG 20010904//EN"
 "http://www.w3.org/TR/2001/REC-SVG-20010904/DTD/svg10.dtd">
<svg version="1.0" xmlns="http://www.w3.org/2000/svg"
 width="300.000000pt" height="158.000000pt" viewBox="0 0 300.000000 158.000000"
 preserveAspectRatio="xMidYMid meet">
<metadata>
Created by potrace 1.10, written by Peter Selinger 2001-2011
</metadata>
<g transform="translate(0.000000,158.000000) scale(0.100000,-0.100000)"
fill="#000000" stroke="none">
<path d="M583 944 c-22 -25 -22 -25 -3 -44 20 -20 20 -20 41 1 18 18 19 22 6
32 -8 7 -16 17 -18 24 -3 7 -13 2 -26 -13z"/>
<path d="M1300 945 c-11 -13 -11 -19 3 -32 21 -21 49 -9 45 19 -4 28 -30 35
-48 13z"/>
<path d="M2100 945 c-17 -20 -5 -45 20 -45 11 0 23 7 26 15 6 15 -11 45 -26
45 -4 0 -13 -7 -20 -15z"/>
<path d="M1732 900 c3 -47 -3 -62 -17 -40 -7 11 -55 13 -80 4 -47 -18 -55
-114 -13 -154 24 -22 77 -27 97 -7 11 10 14 10 18 0 3 -7 13 -13 24 -13 18 0
19 9 19 130 l0 130 -26 0 c-25 0 -26 -2 -22 -50z m-14 -82 c19 -19 15 -66 -7
-78 -11 -5 -24 -10 -30 -10 -16 0 -41 30 -41 50 0 39 52 64 78 38z"/>
<path d="M720 927 c0 -30 -37 -93 -65 -111 -15 -10 -43 -24 -63 -31 -33 -12
-34 -14 -11 -14 56 -2 138 -85 140 -140 l0 -26 11 25 c37 92 54 110 126 136
l37 13 -34 7 c-39 8 -121 83 -121 111 0 10 -5 25 -10 33 -8 13 -10 12 -10 -3z
m47 -136 c11 -12 9 -19 -9 -38 -27 -28 -32 -29 -58 -1 -25 27 -25 33 2 57 22
22 35 18 65 -18z"/>
<path d="M837 910 c-14 -17 -14 -20 1 -33 15 -13 19 -13 33 2 14 15 14 17 -2
32 -15 15 -18 15 -32 -1z"/>
<path d="M1840 895 c0 -16 -6 -25 -15 -25 -8 0 -15 -9 -15 -20 0 -11 7 -20 15
-20 12 0 15 -13 15 -58 0 -65 11 -82 52 -82 21 0 28 5 28 20 0 11 -7 20 -15
20 -11 0 -15 12 -15 50 0 38 4 50 15 50 8 0 15 9 15 20 0 11 -7 20 -15 20 -9
0 -15 9 -15 25 0 20 -5 25 -25 25 -20 0 -25 -5 -25 -25z"/>
<path d="M1165 864 c-20 -10 -32 -11 -39 -4 -13 13 -63 13 -71 0 -3 -5 -11
-10 -16 -10 -6 0 -7 5 -4 10 4 6 -5 10 -19 10 -26 0 -26 0 -26 -90 0 -89 0
-90 25 -90 24 0 25 2 25 65 0 49 4 67 15 71 30 12 46 -16 44 -75 -3 -54 -2
-56 23 -59 26 -3 27 -2 25 57 -2 63 10 88 37 78 12 -5 16 -22 16 -72 0 -63 1
-65 25 -65 24 0 25 2 25 73 0 99 -28 131 -85 101z"/>
<path d="M2022 864 c-13 -9 -22 -11 -22 -5 0 6 -11 11 -25 11 -25 0 -25 -1
-25 -91 l0 -90 27 3 c26 3 27 5 25 50 -4 55 11 88 38 88 13 0 20 7 20 19 0 28
-13 33 -38 15z"/>
<path d="M2264 864 c-19 -10 -30 -12 -32 -5 -2 6 -12 11 -23 11 -18 0 -19 -8
-19 -125 l0 -125 25 0 c23 0 25 4 25 47 0 37 3 44 12 35 20 -20 72 -14 96 11
69 73 0 194 -84 151z m50 -50 c9 -8 16 -24 16 -34 0 -20 -25 -50 -41 -50 -26
0 -49 23 -49 48 0 49 42 69 74 36z"/>
<path d="M1300 780 c0 -89 0 -90 25 -90 25 0 25 1 25 90 0 89 0 90 -25 90 -25
0 -25 -1 -25 -90z"/>
<path d="M1390 780 c0 -89 0 -90 25 -90 24 0 25 3 25 59 0 66 18 93 48 74 12
-7 18 -27 20 -72 3 -57 4 -61 27 -61 24 0 25 3 25 68 0 83 -16 112 -64 112
-17 0 -37 -5 -44 -12 -9 -9 -12 -9 -12 0 0 7 -11 12 -25 12 -25 0 -25 -1 -25
-90z"/>
<path d="M2090 780 l0 -91 26 3 c26 3 26 4 26 88 0 84 0 85 -26 88 l-26 3 0
-91z"/>
<path d="M2400 735 c-18 -21 -5 -47 22 -43 26 3 37 36 16 49 -18 12 -24 11
-38 -6z"/>
</g>
</svg>
